<?xml version="1.0" encoding="utf-8"?>
<!-- Generator: Adobe Illustrator 24.0.0, SVG Export Plug-In . SVG Version: 6.00 Build 0)  -->
<svg version="1.1" id="Layer_1" xmlns="http://www.w3.org/2000/svg" xmlns:xlink="http://www.w3.org/1999/xlink" x="0px" y="0px"
	 viewBox="0 0 850.39 850.39" style="enable-background:new 0 0 850.39 850.39;" xml:space="preserve">
<style type="text/css">
	.st0{fill:#656666;}
	.st1{fill:#C69636;}
</style>
<path class="st0" d="M664.89,740.91l-0.06-0.01c-12.46-1.88-26.68-10.27-29.74-22.67c-0.85-3.47-0.33-6.94,0.17-10.3
	c0.09-0.62,0.19-1.24,0.27-1.86c0.1-0.75,0.19-1.51,0.27-2.29c0.32-2.87,0.66-5.84,1.85-8.47c4.52-9.98,15.06-11.93,25.26-13.82
	c9.05-1.68,17.6-3.26,22.2-10c-2.53-8.54-10.64-13.24-18.48-17.79c-3.44-2-7.01-4.06-10.07-6.43c-5.62-4.35-8.09-8.79-8-14.37
	l-0.06-0.01l0.08-0.6l0-0.26l0.01-0.2c0.29-4.42,0.64-9.91,2.22-14.2c2.49-6.74,9.92-10.15,22.1-10.15c9.21,0,18.93,2.02,22.12,2.68
	c5.11,1.06,11.11,2.15,16.82,2.15c8.31,0,13.94-2.25,17.22-6.87c-2.95-8.69-13.54-12.28-23.78-15.76
	c-7.34-2.49-14.28-4.85-18.64-8.97c-4.55-4.3-6.48-8.93-6.35-15.35l-0.2-0.04l0.34-2.41c0.07-0.79,0.16-1.63,0.28-2.49
	c0.1-0.77,0.2-1.54,0.29-2.31c0.24-1.96,0.48-3.98,0.9-5.95c0.44-2.09,1.29-3.96,2.21-5.84c-1.73-3.96-5.35-6.66-9.74-7.25
	l-0.71-0.09l0.05-0.79c0.04-0.6,0.49-4.03,0.92-7.1c0.95-6.87,0.95-6.87,1.69-6.87c7.6,1.02,12.16,6.82,12.08,15.17l0.12,0.02
	l-0.16,1.18c-0.02,0.36-0.05,0.78-0.1,1.2l-0.1,0.92c-0.36,3.18-0.73,6.47-1.39,9.62l-0.03,0.13l-0.36-0.01l0.35,0.08
	c-0.52,2.34-1.52,4.45-2.51,6.5c2.94,9.11,13.61,12.6,23.93,15.98c4.85,1.59,9.43,3.09,13.02,5.13
	c7.71,4.39,12.26,11.12,12.17,18.01c-0.07,5.29-1.12,11.06-1.99,14.96c-2.08,9.32-9.25,14.05-21.32,14.05h0
	c-5.92,0-11.98-1.09-17.13-2.16c-8.41-1.75-15.43-2.6-21.47-2.6c-8.15,0-14.1,1.57-17.7,4.68c3.15,5.22,9.73,8.79,16.09,12.24
	c3.87,2.1,7.52,4.08,10.19,6.34c6.4,5.41,9.14,11.85,8.87,20.81l0.17,0.04l-0.26,1.73c-0.21,3.07-0.71,6.28-1.17,9
	c-0.02,0.14-0.05,0.27-0.09,0.4l-0.05,0.23l-0.38-0.01l0.37,0.07c-2.68,13.5-14.71,15.95-26.35,18.32
	c-9.14,1.86-17.78,3.62-22.32,10.28c3.69,10.98,18.89,18.13,28.12,19.52c0.27,0.04,0.71,0.23,0.65,1.04
	c-0.08,1.08-0.7,5.44-0.96,7.27c-0.94,6.55-0.94,6.55-1.64,6.55H664.89z M526.44,370.84c-3.98-3.59-5.99-8.26-5.83-13.5
	c0.22-7.01,4.47-14.8,10.82-19.86c6.29-5,13.82-7.95,21.1-10.8c1.17-0.46,2.43-0.91,3.74-1.38c6.56-2.36,13.99-5.03,17.64-10.64
	c4.24-6.53,0.57-13.94-2.38-19.9l-0.6-1.22c-2.94-6-5.44-12.64-3.89-20.49c2.44-12.34,13.18-20.95,26.12-20.95
	c1.93,0,3.88,0.2,5.78,0.6l0.31-1.5c-1.97-0.41-3.81-1.59-5.75-2.85c-1.99-1.29-4.05-2.62-6.34-3.09c-2-0.41-4.05-0.63-6.09-0.63
	c-13.28,0-24.56,8.72-27.44,21.21c-1.56,6.75-0.53,13.37,3.34,21.47c0.34,0.71,0.71,1.45,1.08,2.2c2.93,5.89,6.25,12.57,2.47,18.38
	c-3.28,5.04-10.21,7.57-16.32,9.81c-1.12,0.41-2.21,0.81-3.23,1.2l-0.68,0.26c-7.25,2.82-14.74,5.75-21.1,10.58
	c-7.1,5.39-11.9,13.82-12.22,21.46c-0.24,5.74,1.95,10.87,6.34,14.84c1.73,1.56,4.08,2.37,6.34,3.15c2.2,0.75,4.27,1.47,5.74,2.79
	L526.44,370.84z M282.72,370.64l0.08-0.02c5.9-1.2,9.55-4.33,10.86-9.32c2.77-10.57-6.44-27.11-13.75-33.41
	c-6.53-5.64-15-8.28-23.19-10.84c-2.23-0.7-4.54-1.42-6.72-2.18c-5.36-1.87-11.03-4.04-16.12-7.31c-2.3-1.47-4.38-3.1-6.19-4.82
	c-0.24-0.23-0.8-0.89-1.33-1.53c-0.36-0.43-0.74-0.89-1.1-1.3c-0.13-0.56-0.24-1.12-0.34-1.71c-0.4-2.3-1.87-4.34-3.29-6.32
	c-1.37-1.9-2.66-3.69-2.99-5.6l-1.5,0.26c2.31,13.36,12.01,27.97,23.07,34.73c5.99,3.66,13.15,5.94,20.08,8.13
	c9.47,3,19.25,6.11,26.09,12.8c0.61,5.9-1.68,13.27-10.15,14.99l0.18,1.51c-0.15,0-0.26-0.06-0.29-0.08
	c0.46,0.39,1.63,3.19,2.47,5.24c2.21,5.32,2.95,6.77,4.02,6.77L282.72,370.64z M187.45,344.1c0.28,0.03,0.43,0.21,0.46,0.27
	c-0.26-0.51-0.43-3.53-0.56-5.74c-0.36-6.29-0.56-7.77-1.68-7.88c-13.7-1.31-27.14-4.02-32.74-14.81c0.18-1.51,0.4-3,0.63-4.5
	c0.44-2.91,0.89-5.93,0.99-8.96c0.1-3.09-0.35-6.19-0.77-9.2c-0.09-0.66-0.39-2.85-0.39-2.85c-1.05-7.92-2.35-17.78-11.99-19.69
	l-0.3,1.5c-0.17-0.03-0.26-0.13-0.28-0.16c0.34,0.53,0.42,3.69,0.48,5.77c0.15,5.53,0.32,7.49,1.59,7.74c3.57,0.71,6.08,2.62,7.88,6
	l-0.01,0.78c-0.01,0.83-0.02,1.62-0.1,2.23c-0.85,6.15-1.12,11.32-0.85,16.6l-0.22,0.04l0.49,3.47c0.12,1.33,0.27,2.69,0.46,4.1
	c0.16,1.21,0.34,2.37,0.56,3.51c0.94,5.05,2.57,10.34,8.1,14.84c8.03,6.54,18.72,7.56,28.14,8.46L187.45,344.1z M101.73,295.16
	c0.96-0.03,0.96-0.03,1.11-9.25c0.03-2.09,0.07-4.45,0.13-4.78l-0.73-0.19l-0.02-0.76l-0.48,0.01c-6.75,0-12.76-3.91-16.51-10.74
	c-0.83-1.51-1.52-3.13-2.06-4.81c-0.16-0.49-0.32-1.62-0.46-2.61l-0.06-0.4l0.05-0.29c0.21-1.15,0.43-2.34,0.55-2.74
	c0.58-1.94,1.32-3.97,2.32-6.38c1.29-3.1,2.98-6.27,4.61-9.33c3.18-5.96,6.48-12.13,7.41-18.74c0.63-4.48,0.87-9.8,0.71-15.82
	c-0.47-17.48-15.99-22.93-31.01-28.2c-12.46-4.38-25.35-8.9-29.13-20.35c4.71-10.94,17.64-16.67,27.71-19.55
	c1.76-0.51,3.57-0.99,5.42-1.48c12.44-3.34,26.54-7.12,33.24-19.39c2.93-5.38,3.43-11.15,3.7-17.08c0.5-1.1,0.53-3.68,0.21-4.71
	c0.18-4.39,0.28-9.06-0.65-13.72c-3.48-17.38-17.1-28.89-31.95-40.1l-0.92,1.22c0.58,0.44-0.17,3.91-0.57,5.78
	c-0.76,3.53-1.42,6.58,0.04,7.68c9.05,6.83,17.05,13.16,23.15,21.37c2.93,3.95,5.15,7.98,6.6,11.98c0.83,2.29,1.44,4.59,1.83,6.82
	l0.02,0.17c-0.45,1.04-0.83,2.05-1.2,3.05c-1.05,2.78-2.04,5.41-4.29,7.98c-2.56,2.92-5.83,5.37-10,7.49
	c-5.98,3.04-12.6,4.81-19,6.52c-2.15,0.57-4.29,1.15-6.41,1.77c-9.46,2.76-16.96,6.85-22.28,12.16c-4.23,4.22-6.45,9.08-7.2,15.73
	l-0.07,0l-0.04,1.05c-0.06,0.74-0.12,1.5-0.15,2.27c-0.04,0.83-0.09,1.67-0.13,2.51c-0.34,5.94-0.69,12.09,2.42,17.59
	c4.2,7.42,12.49,11.73,18.37,14.33c2.94,1.3,6.23,2.49,9.72,3.75c12.06,4.35,25.72,9.28,29.51,20.9c-1.48,4.56-3.82,9.02-6.08,13.34
	c-1.9,3.63-3.87,7.38-5.3,11.15c-2.69,7.08-3.44,13.85-3.78,22.46c-0.22,5.47,0.1,19.05,7.69,26.94c3.47,3.61,7.96,5.44,13.36,5.44
	C101.3,295.17,101.51,295.16,101.73,295.16z M717.08,285.21c4.69-3.7,7.39-7.89,8.71-13.54l0.17,0l0.13-1.44
	c0.58-3.11,0.8-6.52,0.98-10.03c0.01-0.19,0.01-0.37,0-0.55l-0.01-0.25l0.02-0.23l-0.02,0c0.03-10.48-7.99-15.6-15.75-20.55
	c-1.62-1.03-3.29-2.1-4.84-3.19c-4.5-3.16-7.74-6.8-9.9-11.11c-1.09-2.18-1.93-4.49-2.48-6.87c-0.17-0.71-0.25-1.44-0.34-2.21
	c-0.04-0.32-0.07-0.64-0.11-0.95c4.6-10.05,11.95-16.11,20.45-23.12c0.82-0.67,1.64-1.36,2.47-2.05
	c10.28-8.55,16.31-17.43,18.97-27.94c0.81-3.22,1.46-6.85,1.92-10.74c0.14-0.67,0.26-1.78,0.3-2.72c0.36-3.84,0.55-7.89,0.57-12.02
	c0.04-10.88-3.63-20.98-11.9-32.72c-0.92-1.31-1.86-2.6-2.8-3.9c-3.2-4.4-6.5-8.96-8.94-13.89c-1.61-3.24-2.7-6.24-3.34-9.15
	c-0.22-1-0.39-2.04-0.53-3.12c0.46-1.11,0.84-2.67,1.19-4.18c0.31-1.3,0.6-2.52,0.88-3.15c1.21-2.68,2.71-5.21,4.44-7.52
	c3.44-4.59,7.91-8.3,13.28-11.03c1.58-0.8,1.35-3.97,1.08-7.63c-0.14-1.87-0.39-5.36,0.16-5.78l-0.69-1.36
	c-17.77,9.02-21.57,26.17-23.02,43.36c-0.78,9.18,0.47,16.69,3.93,23.65c2.6,5.23,6.06,9.99,9.41,14.6
	c3.07,4.23,6.25,8.6,8.71,13.28c2.39,4.52,3.99,9.27,4.77,14.1c0.32,1.96,0.43,3.89,0.49,5.39c-0.27,0.77-0.47,1.57-0.66,2.34
	c-0.18,0.73-0.37,1.48-0.61,2.18c-3,8.78-8.59,16.19-18.12,24c-1.14,0.94-2.31,1.87-3.48,2.8c-6.85,5.47-13.93,11.12-17.86,19.21
	c-2.4,4.94-3.12,10.49-3.54,15.76c-0.13,0.49-0.44,1.95-0.2,2.78l-0.05,0.81c-0.07,1.07-0.14,2.13-0.21,3.17
	c-0.77,10.63,2.37,20.04,8.85,26.49c2.87,2.86,6.51,5.13,10.02,7.32c5.5,3.43,10.71,6.68,13.28,11.98
	c-3.52,4.83-9.64,8.55-15.18,11.55c-5.23,2.84-9.78,4.21-13.89,4.21c-3.35,0-6.45-0.95-9.21-2.84l-0.43,0.63l-0.47,0.6
	c0.38,0.57-0.42,3.78-0.9,5.7c-1.05,4.21-1.63,6.84-0.3,7.74c3.04,2.08,6.48,3.13,10.21,3.13
	C699.71,296.22,707.69,292.62,717.08,285.21z M170.05,718.01c8.42-0.15,15.84-6.62,17.63-15.39c1.59-7.79-2.29-12.92-6.68-17.24
	c-0.1-0.13-0.32-0.35-0.66-0.66c-0.36-0.35-0.73-0.69-1.1-1.04c-6.16-5.71-11.1-9.93-18.72-12.17c-2.84-0.84-5.78-1.47-8.63-2.09
	c-5.11-1.1-10.4-2.24-15.13-4.57c-0.78-1.66-1.57-3.61-1.65-3.83c-1.33-4.18-1.58-9.14-0.71-14.34
	c1.77-10.62,8.18-19.47,15.15-28.35c0.84-1.07,1.87-2.27,2.96-3.55c6.47-7.57,15.34-17.95,8.43-26.39
	c-1.93-2.36-8.79-10.3-15.89-13.33c-2.76-1.18-5.7-1.78-8.73-1.78c-9.21,0-18.42,5.4-27.33,10.62c-8.78,5.15-17.08,10.01-25.2,10.01
	c0,0,0,0,0,0c-1.97,0-3.8-0.28-5.6-0.86c-1.31-6.05,4.06-12.11,9.74-18.52c7.59-8.56,15.43-17.42,6.89-26.83
	c-3.27-3.61-8.37-8.68-14.07-12.39c-1.31-0.85-2.69-1.6-4.02-2.33l-1.02-0.56c-1.23-3.31-2.03-5.51,0.52-8.59
	c0.6-0.72,0.6-0.72-6.74-7.24c-1.46-1.3-2.97-2.64-3.16-2.84l-0.6,0.47l-0.59-0.49c-1.86,2.23-2.59,4.7-2.18,7.32
	c1.35,8.55,14.9,17.2,23.16,22.42c2.74,7.71-4.59,16.31-11.07,23.9c-2.52,2.96-4.91,5.75-6.43,8.23
	c-6.53,10.6,5.86,19.73,12.51,24.63c3.42,2.52,7.4,3.8,11.84,3.8c8.42,0,17.25-4.52,25.53-9.4c8.05-4.75,18.06-10.65,27.69-10.65
	c1.94,0,3.82,0.25,5.58,0.74c0.95,6.04-4.48,12.63-8.87,17.95c-0.82,0.99-1.6,1.94-2.31,2.85l-1.61,2.04
	c-5.39,6.82-10.96,13.87-13.99,22.19c-3.45,9.46-3.4,18.94,0.14,26.01c2.4,4.81,6.66,8.49,10.78,12.06
	c0.84,0.73,1.67,1.45,2.47,2.16c6.61,5.92,14.63,7.78,22.39,9.57c4.88,1.13,9.92,2.29,14.59,4.46c0.22,0.36,0.43,0.75,0.56,1.13
	c1.05,3.06,0.97,6.68-0.23,10.19c-2.45,7.16-8.56,11.86-15.57,11.98l-0.06,1.52c0.58,0.18,2.54,2.34,3.38,3.26
	c0.48,0.53,0.88,0.96,1.09,1.16c0.22,0.2,0.56,0.59,0.98,1.05c1.85,2.08,3.36,3.66,4.53,3.66L170.05,718.01z"/>
<path class="st1" d="M616.48,540.97c-6.65,0-14.02-0.87-22.54-2.67l0.32-1.49c-0.03,0-0.05,0-0.07,0c-0.24,0-0.34,0.06-0.36,0.08
	c0.45-0.39,1.6-3.2,2.45-5.25c2.24-5.44,2.94-6.81,3.99-6.81h0.08l0.12,0.02c8.95,1.89,16.61,2.81,23.42,2.81
	c8.75,0,15.64-1.58,20.51-4.69c-1.47-5.16-7.3-9.56-11.59-12.79l-0.98-0.74c-5.05-3.83-10.32-6.6-15.9-9.52
	c-2.41-1.26-4.9-2.56-7.35-3.95c-5.36-3.04-7.07-7.22-5.19-12.75l-0.14-0.07l0.67-1.31c0.19-0.45,0.42-0.95,0.68-1.47
	c0.47-0.92,0.92-1.9,1.39-2.91c2-4.3,4.28-9.18,8.4-11.61c2.5-1.47,5.49-2.19,9.13-2.19c4.09,0,8.42,0.92,12.24,1.73
	c1.46,0.31,2.87,0.61,4.2,0.84l28.05,4.96c1.5,0.26,3.04,0.55,4.61,0.85c6.77,1.27,13.77,2.59,20.63,2.59
	c8.86,0,15.66-2.32,20.8-7.09c0.01-0.29,0.02-0.57,0.04-0.86c0.04-0.87,0.09-1.68-0.04-2.51c-0.46-3.09-1.85-6.04-4.13-8.76
	c-3.51-4.19-8.71-7.53-15.89-10.21c-8.45-3.16-17.5-4.7-26.24-6.19c-5.64-0.96-11.48-1.95-17.12-3.37
	c-18.93-4.76-30.18-13.13-32.53-24.2c-0.57-2.7-0.28-5.38,0.91-8.44l0.22,0.09l-0.22-0.12c0.75-1.89,1.73-3.68,2.68-5.42
	c0.36-0.66,0.72-1.32,1.06-1.98c0.49-0.93,0.96-1.81,1.45-2.66l0.88-1.7l0.13,0.06c2.09-3.17,4.37-5.11,7.55-6.45
	c6.63-2.78,14.28-4.19,22.73-4.19c9.42,0,19.5,1.84,28.39,5.19c1.72,0.65,3.68,1.5,5.76,2.41c6.37,2.77,14.29,6.22,21.08,6.22
	c2.79,0,5.14-0.57,7.16-1.73c-1.15-7.6-10.43-12.25-14.42-13.91c-1.05-0.44-2.14-0.87-3.24-1.3c-7.32-2.88-15.61-6.14-18.12-14.76
	c-1.73-5.92,1.56-11.59,4.47-16.59c0.45-0.78,0.89-1.54,1.3-2.28c0.07-0.13,0.15-0.25,0.23-0.37l0.11-0.17l0.6-1.17l0.12,0.06
	c2.04-2.78,4.8-4.61,7.48-6.38c1.32-0.88,2.68-1.78,3.93-2.78c0.65-6.3-1.47-11.99-5.99-16.05c-0.86-0.77-0.13-2.17,3.13-7.37
	c1.18-1.87,2.79-4.44,2.86-5.02c-0.01,0.06,0.01,0.27,0.2,0.43l1.02-1.14c6.98,6.26,8.38,15.36,3.94,25.66l0.04,0.02l-0.28,0.53
	c-0.25,0.56-0.54,1.16-0.84,1.76c-0.5,0.97-0.98,1.98-1.47,3.01c-1.57,3.27-3.18,6.65-5.49,9.39c-1.87,2.22-4.29,3.63-6.64,4.99
	c-0.53,0.31-1.06,0.61-1.58,0.93c1.48,6.91,10.49,10.78,18.46,14.21c4.45,1.92,8.66,3.73,11.38,5.93
	c6.08,4.95,7.99,11.17,5.38,17.53c-1.59,3.86-4.11,9.31-7.1,13.31c-3.42,4.56-7.85,6.78-13.56,6.78c-7.01,0-14.77-3.43-21.61-6.46
	c-3.43-1.52-6.68-2.95-9.51-3.82c-7.16-2.19-14.63-3.31-22.19-3.31c-1.91,0-3.83,0.07-5.73,0.22c-6.4,0.48-13.65,1.25-19.02,4.21
	c0.92,5.38,5.33,11.09,11.91,15.39c8.06,5.27,17.35,7.66,25.37,9.31c3.72,0.76,7.52,1.37,11.53,2.01
	c13.24,2.12,26.93,4.31,37.63,12.27c8.09,6.02,11.4,14.24,8.83,21.99c-1.58,4.77-4.37,9.58-6.83,13.82l-0.39,0.67
	c-5.3,9.15-14.13,13.6-26.98,13.6c-7.26,0-14.94-1.38-21.71-2.59l-34.19-6.05c-0.79-0.14-1.61-0.29-2.45-0.45
	c-3.53-0.66-7.54-1.41-11.23-1.41c-2.46,0-4.55,0.32-6.35,0.99c1.11,2.01,3.35,3.74,7.13,5.54c7.06,3.36,12.34,6.32,17.1,9.61
	l1.17,0.8c7.69,5.27,19.31,13.24,15.04,23.78l0.02,0.01l-0.15,0.28l-0.08,0.22c-1.85,4.1-3.43,7.48-5.52,10.55l-0.36,0.69
	l-0.09-0.05c-2.77,3.86-5.93,6.4-9.91,8C630.01,539.9,623.69,540.97,616.48,540.97L616.48,540.97z M397.79,43.06l0.93-1.43
	c4.73-7.34,10.63-16.47,19.56-17.52c0.52-0.06,1.06-0.09,1.58-0.09c3.37,0,6.69,1.3,9.36,3.65c0.32,0.28,0.62,0.63,0.93,0.99
	c0.12,0.14,0.25,0.29,0.37,0.42c0.61,1.48,1.22,2.97,1.78,4.47c9.15,24.29,20.47,39.71,34.6,47.13c3.75,1.97,7.52,2.96,11.2,2.96
	c7.17,0,13.84-3.88,18.79-10.92c3.71-5.27,5.94-11.29,8.1-17.12c1.6-4.32,3.26-8.78,5.49-12.87c5.11-9.33,13.41-14.47,23.37-14.47
	c1.11,0,2.25,0.06,3.39,0.19c12.25,1.36,22.23,8.98,31.87,16.34l0.26,0.2c21.4,16.35,43.72,24.64,66.34,24.64
	c3.79,0,7.63-0.24,11.41-0.72c26.65-3.36,50.63-18.92,64.15-41.63c0.83-1.39-0.77-3.54-3.46-6.92c-1.23-1.55-3.29-4.15-3.18-4.79
	l-1.31-0.78c-15.33,25.76-43.38,41.14-75.03,41.14c-17.64,0-34.98-4.74-50.14-13.72c-4.2-2.49-8.64-5.84-13.35-9.4
	c-11.34-8.56-24.19-18.27-37.51-18.27c-4.83,0-9.51,1.3-13.91,3.85c-9.24,5.36-12.94,15.55-16.52,25.41
	c-4.1,11.28-7.97,21.94-19.44,25.93c-1.8,0.63-3.68,0.94-5.61,0.94c-10.38,0-20.09-9.01-24.95-14.37c-0.95-1.05-1.87-2.15-2.74-3.25
	l-0.63-0.8l-0.48-0.71l-0.12-0.28c-0.14-0.33-0.28-0.66-0.41-1c-0.32-0.8-0.63-1.6-0.93-2.4l-1.01-2.68
	c-1.28-3.41-2.6-6.94-4.26-10.28l-0.98-1.98c-0.62-1.26-1.26-2.57-1.93-3.88c-0.3-1.21-1.77-3.73-2.63-4.88
	c-2.23-3.86-4.32-6.66-6.57-8.82c-3.04-2.93-6.56-4.41-10.46-4.41c-4.95,0-10.24,2.54-14.49,6.96c-3.87,4.03-6.96,8.74-9.95,13.29
	c-2.77,4.22-5.63,8.58-9.09,12.35c-7.3,7.94-16.36,14.44-26.94,19.32c-12.72,5.86-26.71,8.84-41.57,8.84
	c-9.31,0-18.82-1.19-28.24-3.52c-13.37-3.32-26.91-8.94-40.23-16.72c-3.2-1.87-6.4-4.15-9.78-6.55
	c-8.53-6.08-17.36-12.36-27.41-12.83c-0.35-0.02-0.69-0.02-1.03-0.02c-9.47,0-16.77,6.02-23.84,11.85c-3.27,2.7-6.36,5.25-9.66,7.24
	c-9.62,5.82-20.84,8.9-32.46,8.9c-2.72,0-5.48-0.17-8.2-0.5l-0.19,1.52c0.8,0.1,1.92,3.3,2.59,5.22c1.18,3.37,2.2,6.27,4.06,6.5
	c2.82,0.35,5.67,0.52,8.47,0.52c10.06,0,19.57-2.17,28.29-6.46c5.05-2.48,9.49-6.09,13.78-9.58c4.91-3.99,9.98-8.12,15.88-10.43
	c2.49-0.97,5.06-1.46,7.66-1.46c8.89,0,17.3,5.75,24.71,10.82l1.23,0.84c11.54,7.86,23.24,14.15,34.76,18.69
	c14.72,5.8,30.5,8.86,45.62,8.86C351.95,84.53,380.4,69.8,397.79,43.06z M192.93,537.63l-0.07-0.76l-0.03-0.76
	c-0.67-0.16-2.14-3.14-3.02-4.92c-1.86-3.77-3.09-6.09-4.65-6.09l-0.14,0.01c-2.47,0.23-4.5,0.33-6.39,0.33
	c-4.53,0-8.19-0.64-11.17-1.94c0.44-6.72,8.75-12.13,16.1-16.91c3.43-2.23,6.66-4.33,8.61-6.32c10.31-10.52,1.86-21.59-4.93-30.49
	l-0.54-0.71c-5.34-7.01-12.79-10.28-23.44-10.28c-5.76,0-11.67,0.93-17.38,1.83c-1.01,0.16-2.01,0.32-3,0.47l-28.45,4.33
	c-1.31,0.2-2.85,0.52-4.47,0.87c-3.64,0.77-7.76,1.64-11.55,1.64c-1.03,0-2-0.07-2.88-0.2c0.91-5.27,5.87-10.12,15.15-14.78
	c5.82-2.93,11.95-5.45,17.88-7.89c5.09-2.09,10.36-4.26,15.42-6.68c14.61-6.97,38.91-22.42,37.57-47.49
	c-0.44-8.17-3.78-14.49-8.68-21.46c-0.75-1.07-1.49-2.13-2.18-3.06c-0.39-0.78-0.59-1.17-0.93-1.29
	c-4.12-5.54-8.26-9.65-14.73-11.76c-3.43-1.12-7.43-1.64-12.57-1.64c-3.44,0-7.05,0.23-10.55,0.46c-3.52,0.23-7.16,0.46-10.65,0.46
	c-8.4,0-14.23-1.41-18.82-4.56c-0.66-3.43-0.22-6.95,0.24-10.67c0.13-1.03,0.26-2.08,0.37-3.14c0.61-5.94-0.59-11.01-3.79-15.94
	l-0.53-0.82c-5.33-8.25-10.83-16.77-21.11-18.85l-0.38,1.47c0.53,0.3,1.99,2.82,2.62,3.9c0.36,0.62,0.65,1.13,0.82,1.36
	c0.17,0.24,0.43,0.7,0.74,1.24c1.38,2.42,2.52,4.3,3.68,4.53c3.09,0.62,5.43,1.82,8.14,3.55c0.45,2.12,0.82,3.97,0.73,6.18
	c-0.08,2-0.32,3.95-0.54,5.84c-0.69,5.75-1.34,11.17,2.25,16.87l0.32,0.5c2.79,4.44,5.96,9.48,9.81,13.14
	c6.02,5.73,14.68,7.42,20.88,7.83c1.15,0.07,2.32,0.11,3.59,0.11c0,0,0,0,0,0c3.32,0,6.68-0.26,9.93-0.52
	c3.22-0.25,6.56-0.51,9.82-0.51c1.02,0,2.04,0.02,3.06,0.08c4.81,0.27,8.78,1.15,12.15,2.7c1.36,0.62,2.48,1.41,3.67,2.24
	c0.32,0.22,0.63,0.44,0.96,0.66c2.07,6.7,3.08,12.21,1.78,18.79c-1.48,7.51-5.77,14.97-12.41,21.58
	c-10.88,10.82-25.22,16.76-39.08,22.5c-3.74,1.55-7.61,3.15-11.34,4.82l-1.93,0.85c-7.47,3.29-16.77,7.38-19.92,15.35
	c-1.95,4.94-0.41,8.79,1.18,11.61l-0.03,0.02l0.19,0.27c0.91,1.57,2.03,3.12,3.11,4.61c0.33,0.46,0.67,0.92,1,1.39
	c0.55,0.77,1.07,1.47,1.57,2.1l1.33,1.9l0.19-0.11c3.07,3.29,6.2,4.65,10.64,4.65c1.08,0,2.23-0.08,3.52-0.24
	c7.51-0.95,15.13-2.17,22.49-3.35c3.65-0.58,7.29-1.17,10.94-1.72c2.39-0.36,4.82-0.79,7.26-1.22c6.75-1.18,13.73-2.41,20.52-2.41
	c1.41,0,2.79,0.05,4.09,0.16c4.82,0.39,8.73,1.56,11.94,3.59c0.18,0.11,0.38,0.26,0.59,0.43c0.21,0.69,0.46,1.58,0.48,2.2
	c0.23,7.63-7.5,12.85-14.96,17.89c-9.28,6.27-18.88,12.76-12.93,23.94c2.76,5.19,6.36,10.21,9.63,13.42
	c3.55,3.49,8.93,5.19,16.43,5.19C188.77,537.98,191.27,537.78,192.93,537.63z M475.47,533.57l0.43-0.35l-0.18-0.52
	c-0.04-0.11-7.9-11.34-8.72-11.34l-0.26,0l-0.21,0.16c-13.46,10.3-29.49,16.4-46.35,17.64c-2.14,0.16-4.31,0.24-6.45,0.24
	c-6.48,0-12.88-0.72-19.05-2.15c-5.44-1.26-10.65-3.4-15.69-5.46c-3.33-1.36-6.77-2.78-10.28-3.94c-5.26-1.74-10.83-2.59-17.04-2.59
	c-8.02,0-16.14,1.43-23.99,2.8c-6.1,1.07-12.42,2.18-18.65,2.61c-1.84,0.13-3.64,0.19-5.33,0.19c-8.4,0-15.25-1.55-20.94-4.72
	c-1.71-0.96-3.39-2.11-4.99-3.44c-1.09-3.03-1.76-5.6-1.71-8.93c0.03-2.18-2.17-4.17-4.3-6.09c-1.83-1.65-3.72-3.35-3.7-4.75
	l-1.53-0.02c-0.11,7.77,3.31,13.21,7.48,18.96c0,0.03,0.01,0.06,0.02,0.09c0.19,0.94,2.24,3.55,3.2,4.25
	c3.9,5.15,7.58,9.18,12.79,12.09c6.19,3.46,13.25,5.14,21.59,5.14c0,0,0,0,0,0c8.07,0,16.41-1.55,24.48-3.05
	c7.7-1.43,14.98-2.78,22.08-2.92c0.3-0.01,0.6-0.01,0.9-0.01c10.14,0,18.68,3.37,27.73,6.93c1.43,0.56,2.88,1.14,4.36,1.7
	c9.2,3.53,18.87,5.42,28.77,5.62c0.61,0.01,1.22,0.02,1.83,0.02C441.07,551.76,460.14,545.3,475.47,533.57z M532.79,841.55
	c11.65-3.43,22.39-11,31.06-21.9c2.44-3.06,4.56-6.65,6.6-10.12c4.07-6.9,8.29-14.04,15.32-17.7c3.6-1.87,7.85-2.78,12.99-2.78
	c4.62,0,9.5,0.72,14.22,1.41c4.7,0.69,9.57,1.41,14.16,1.41l0,0c8.1,0,14.06-2.28,18.76-7.19c0.79-0.83,0-2.08-3.75-7.09
	c-1.33-1.77-3.14-4.2-3.27-4.77c0.01,0.06,0.01,0.28-0.17,0.46l-1.1-1.06c-4.28,4.46-9.91,6.54-17.73,6.54
	c-4.63,0-9.52-0.71-14.25-1.4c-4.71-0.68-9.15-1.33-13.35-1.33l-0.38,0c-9.42,0.09-16.67,3.31-22.16,9.85
	c-3.06,3.64-5.54,7.74-7.95,11.7c-2.48,4.09-5.05,8.33-8.23,12.02c-11.46,13.28-26.5,20.9-41.26,20.9c-2.52,0-5.06-0.22-7.54-0.67
	c-8.75-1.57-16.71-5.7-22.42-11.66c-0.23-0.67-0.47-1.33-0.71-2c-0.36-0.98-0.71-1.97-1.03-2.97c-0.25-0.79-0.49-1.57-0.73-2.36
	c-1.18-3.83-2.4-7.79-4.38-11.43c-2.8-5.16-6.29-11.57-10.68-16.23c-4.84-5.14-12.23-7.97-20.81-7.97c-1.32,0-2.66,0.07-3.99,0.2
	c-13.38,1.34-24.08,9.13-34.43,16.65c-6.19,4.5-12.59,9.16-19.46,12.34c-6.68,3.09-13.06,4.66-18.96,4.66
	c-4.1,0-7.94-0.78-11.42-2.32c-7.52-3.33-12.95-9.86-17.88-16.28c-0.71-0.92-1.41-1.86-2.12-2.79c-4.58-6.06-9.31-12.33-15.75-16.66
	c-6.65-4.47-14.83-6.73-24.32-6.73c-1.88,0-3.81,0.09-5.75,0.27c-13.57,1.28-26.36,6.46-38.72,11.48
	c-10.57,4.29-21.51,8.72-32.88,10.69c-7.45,1.29-15.08,1.94-22.68,1.94c-5.17,0-10.4-0.3-15.53-0.9c-6.36-0.74-12.69-1.95-18.81-3.6
	l-1.52-0.4c-3.29-0.87-6.69-1.76-9.68-3.27c-0.36-8.68,4.65-17.19,7.71-21.53c5.96-8.46,14.45-14.69,24.56-18.02l-0.28-0.84v-0.64
	c0.19,0,0.29,0.08,0.29,0.08c-0.46-0.36-1.86-3.04-2.89-5c-2.71-5.18-3.53-6.49-4.49-6.49l-0.18,0.01l-0.12,0.04
	c-10.73,3.53-19.69,10.24-25.89,19.38c-2.7,3.99-11.11,17.83-5.92,28.62c3.22,6.68,7.83,14.74,15.02,17.74
	c10.46,4.37,23.53,6.93,38.85,7.61c2.01,0.09,4.06,0.14,6.07,0.14c11.41,0,22.71-1.43,33.57-4.25c8.84-2.3,17.36-5.8,25.6-9.18
	c3.71-1.52,7.54-3.1,11.35-4.54c10.52-3.99,20.23-6.01,28.87-6.01c14.02,0,25.57,5.32,34.33,15.82c1.87,2.24,3.67,4.64,5.42,6.97
	c3.98,5.3,8.1,10.79,13.44,14.98c5.5,4.31,11.98,6.5,19.25,6.5c4.82,0,9.87-0.97,15-2.88c8.64-3.22,16.41-8.83,23.93-14.25
	c11.31-8.17,23.01-16.61,37.62-16.61l0.69,0.01c5.07,0.09,9.75,1.24,13.55,3.33c0.3,0.16,2.22,1.33,3.71,2.42
	c0.16,0.45,0.33,0.9,0.5,1.35c0.26,0.69,0.52,1.38,0.75,2.07c2.94,9.16,6.33,16.43,11.3,24.25c0.04,0.08,0.09,0.17,0.15,0.24
	l0.2,0.32c8.57,13.36,22.7,21.33,37.79,21.33C524.17,843.45,528.52,842.81,532.79,841.55z M144.5,552.07l0.74,0.18
	c0.03-0.11,0.21-0.78,0.49-1.78c3.28-11.89,3.28-11.89,2.4-12.15c-0.64-0.19-1.36-0.39-2.16-0.61c-6.75-1.87-19.25-5.34-21.3-11.69
	c1.47-5.01,2.8-11.41,0.36-17.04c-5.6-12.89-19.93-14.63-33.21-14.63c-1.02,0-2.02,0.01-3,0.02c-1.18,0.02-1.57,1.54-2.59,7.55
	c-0.37,2.18-0.88,5.17-1.23,5.65c0.03-0.04,0.18-0.17,0.41-0.17l0.02,1.53c0.46-0.01,0.92-0.01,1.4-0.01
	c12.63,0,33.89,2.43,34.63,18.65c-1.23,3.82-1.87,6.83-2.02,9.44c-0.5,8.81,14.58,12.97,22.68,15.2c0.81,0.22,1.55,0.43,2.18,0.61
	L144.5,552.07z"/>
<path class="st0" d="M127.64,111.79c5.12,0,10.05,3.22,11.18,8.34c0.38,2.84,0.38,7.2,0.38,12.51c0,25.97-2.84,75.07-3.6,89.1
	c0,1.9,0.38,2.65,1.89,2.65c0.38,0,0.76-0.19,1.33-0.19c4.74-0.57,9.48-0.76,14.03-0.76c4.36,0,8.72,0.19,13.08,0.76h0.38
	c1.14,0,1.14-0.76,1.14-1.71c0,0-0.38-18.39-0.38-40c0-27.11,0.57-59.52,3.22-68.43c1.9-6.63,9.67-10.43,17.25-10.43
	c7.2,0,14.22,3.22,16.87,10.62c2.28,6.26,3.22,19.52,3.22,36.02c0,50.42-8.53,132.13-13.46,143.31c-2.65,5.88-7.58,8.34-12.13,8.34
	c-5.12,0-9.67-2.84-10.62-7.77c-4.17-19.9-3.41-33.17-4.36-53.27v-0.38c0-0.95-0.57-1.33-1.71-1.33c-0.38,0-0.95,0-1.52,0.19
	c-1.9-0.19-3.98-0.19-6.26-0.19c-6.07,0-13.27,0.57-19.91,0.95c-1.52,0-1.71,0.76-1.71,1.52v1.33c-0.38,16.87-2.09,41.33-4.55,46.44
	c-1.52,3.22-4.17,4.55-6.82,4.55c-3.03,0-5.88-1.52-6.63-3.98c-5.12-14.79-7.01-47.01-7.01-79.62c0-41.33,3.03-83.41,6.26-91.37
	C119.3,113.88,123.47,111.79,127.64,111.79z M239.3,288.28c-7.2,0-14.41-3.98-16.3-13.27c-2.28-11.56-3.41-24.08-3.41-36.97
	c0-48.91,15.73-102.18,35.64-120.57c5.5-4.93,12.51-7.58,19.34-7.58c6.45,0,12.89,2.09,18.01,6.83
	c19.72,17.63,25.4,65.4,25.4,106.73c0,19.52-1.33,37.72-3.03,50.42c-0.38,6.64-7.01,11-12.89,11c-3.98,0-7.77-2.28-8.34-7.58
	c0.19-10.62,0.95-18.77,0.95-29c0-2.84,0-5.88-0.19-9.1v-0.19c0-3.41-9.67-6.45-19.72-6.45c-5.88,0-11.94,0.95-16.3,3.6
	c-1.33,0.95-2.28,3.22-2.28,4.93c0,1.33-0.57,13.08-0.57,23.7c0,4.36,0.19,8.72,0.38,11.75C254.28,283.92,246.7,288.28,239.3,288.28
	z M257.69,213.97v3.79c0,2.28,0.95,2.28,2.84,2.28c3.6-0.19,14.6-0.57,23.13-0.57c4.93,0,8.91,0.19,10.62,0.38
	c0.19,0,0.57,0.19,0.76,0.19c0.76,0,1.33-0.76,1.33-1.9c0.19-3.41,0.19-7.39,0.19-11.75c0-23.13-1.89-54.78-8.53-66.16
	c-2.09-2.84-5.69-4.74-9.48-4.74c-3.41,0-6.82,1.71-8.72,5.69C260.53,159.38,257.69,195.39,257.69,213.97z M356.08,299.47
	c-5.12,0-9.86-2.28-11.94-7.01c-5.5-15.35-7.77-47.58-7.77-80.38c0-39.81,3.22-80.75,7.58-94.59c3.98-12.7,12.32-17.63,20.28-17.63
	c8.72,0,16.87,6.07,18.01,14.6c2.46-4.17,11.56-8.53,22.75-8.53c11,0,23.89,4.36,33.74,18.01c6.45,8.91,11,28.62,11,49.48
	c0,34.12-12.51,71.85-50.99,71.85c-6.26,0-13.08-0.95-20.66-3.03c0,4.55-2.28,42.46-6.82,49.48
	C367.84,296.62,361.77,299.47,356.08,299.47z M378.26,231.79c4.55,2.84,8.72,4.17,12.7,4.17c19.91,0,30.52-34.31,30.52-65.21
	c0-25.4-7.2-48.53-21.99-48.53c-4.93,0-10.43,2.46-16.87,7.77C380.73,131.7,378.26,231.6,378.26,231.79z M479.88,299.47
	c-5.12,0-9.86-2.28-11.94-7.01c-5.5-15.35-7.77-47.58-7.77-80.38c0-39.81,3.22-80.75,7.58-94.59c3.98-12.7,12.32-17.63,20.28-17.63
	c8.72,0,16.87,6.07,18.01,14.6c2.46-4.17,11.56-8.53,22.75-8.53c11,0,23.89,4.36,33.74,18.01c6.45,8.91,11,28.62,11,49.48
	c0,34.12-12.51,71.85-50.99,71.85c-6.26,0-13.08-0.95-20.66-3.03c0,4.55-2.28,42.46-6.82,49.48
	C491.64,296.62,485.57,299.47,479.88,299.47z M502.06,231.79c4.55,2.84,8.72,4.17,12.7,4.17c19.91,0,30.52-34.31,30.52-65.21
	c0-25.4-7.2-48.53-21.99-48.53c-4.93,0-10.43,2.46-16.87,7.77C504.53,131.7,502.06,231.6,502.06,231.79z M578.66,137.77
	c0-11.37,0.95-21.42,2.84-28.63c2.46-10.43,12.7-15.92,21.61-15.92c7.58,0,14.03,3.79,14.03,12.13v1.33
	c-0.57,6.26-0.76,13.08-0.76,20.09c0,37.15,7.2,80,21.42,80H638c29.95-0.57,30.33-92.13,31.66-99.9
	c0.95-6.45,6.82-10.05,11.94-10.05c4.74,0,9.1,2.84,9.48,9.1c0.19,2.46,0.19,5.5,0.19,9.1c0,28.06-4.74,87.58-36.4,105.4
	c-1.9,1.71-2.65,5.12-2.65,9.48c0,12.13,5.12,32.23,5.12,49.29c0,7.01-0.95,13.46-3.41,18.77c-3.03,6.45-11.18,9.86-18.96,9.86
	c-7.77,0-15.17-3.41-16.68-10.43c-1.14-6.07-1.71-12.32-1.71-18.39c0-18.39,4.17-35.45,4.17-45.12c0-4.55-0.95-7.39-3.79-7.77
	C589.09,222.12,578.66,173.78,578.66,137.77z M326.69,321.86c8.15,0,16.3,6.07,18.58,17.06c1.14,5.5,1.89,17.63,1.89,32.8
	c0,50.8-8.15,137.63-35.45,137.63h-1.52c-31.09-3.41-55.92-109.38-61.8-113.93c-0.76,5.31-1.71,112.79-10.43,133.46
	c-3.41,7.77-8.53,11.18-13.46,11.18c-6.26,0-12.51-5.31-14.79-14.22c-6.82-22.37-10.24-60.47-10.24-97.63
	c0-33.93,2.84-67.11,8.15-86.06c1.52-5.31,9.67-13.84,19.15-13.84c6.45,0,13.65,3.98,19.52,15.74
	c19.34,38.48,33.74,79.24,52.32,128.34c0.19-0.19,4.74-108.43,10.05-133.08C311.34,327.36,319.11,321.86,326.69,321.86z
	 M407.27,344.04c15.35,0,29.76,3.98,32.98,9.67c0.38,0.95,0.57,1.71,0.57,2.46c0,2.08-1.52,3.6-4.55,3.6
	c-4.93-0.57-9.86-0.76-14.79-0.76c-8.72,0-17.06,0.76-22.94,2.65c-2.46,0.57-4.17,4.74-4.17,7.58c-1.33,8.53-2.84,38.29-2.84,59.33
	c0,9.67,0.38,17.44,1.14,20.47c0.38,1.71,2.65,2.09,5.88,2.09c4.17,0,9.67-0.76,14.22-0.76c4.74,0,8.34,0.76,8.53,3.98
	c0,8.53-25.21,4.55-28.06,8.34c-0.95,1.71-1.33,5.69-1.33,10.62c0,9.1,1.33,21.04,1.89,25.78c1.14,6.07,5.12,7.96,9.86,7.96
	c7.96,0,18.39-5.12,23.13-5.12c1.14,0,2.09,0.38,2.28,1.33v0.57c0,6.26-22.18,12.89-36.97,13.27h-1.9c-8.34,0-13.65-2.28-16.87-5.12
	c-11.18-9.86-15.17-48.34-15.17-83.98c0-27.68,2.46-53.84,5.69-63.69C368.79,349.72,388.88,344.04,407.27,344.04z M607.08,397.87
	c0,50.8-11.56,112.79-47.58,112.79c-3.03,0-6.07-0.38-9.29-1.33c-9.48-0.95-19.34-15.92-22.75-24.08
	c-6.26,11.18-11,18.58-21.42,25.59c-3.41,2.27-9.29,3.98-15.73,3.98c-10.24,0-21.8-3.98-27.3-14.79
	c-9.29-16.3-12.32-51.18-12.32-82.08c0-25.21,2.08-47.96,3.98-55.16c3.41-12.13,12.89-17.06,21.61-17.06
	c8.15,0,15.92,4.36,17.44,10.81c1.14,4.74,1.52,12.13,1.52,21.04c0,24.64-3.03,61.04-3.03,87.01c0,18.39,1.52,31.66,6.64,31.66h0.19
	c6.45-0.57,11.18-4.74,14.22-10.43c5.88-11.18,7.39-72.41,8.15-78.48c0.38-4.36,3.98-7.01,7.39-7.01c3.41,0,6.83,2.65,6.83,8.91
	c0,8.53-0.57,24.45-0.57,38.86c0,12.32,0.38,23.7,1.89,28.43c1.14,3.41,6.63,10.43,11.37,10.43c0.76,0,1.52-0.19,2.28-0.57
	c16.11-8.72,15.92-118.29,16.11-123.22c0.57-9.67,10.05-14.41,19.34-14.41c8.91,0,17.63,4.17,18.77,12.51
	C606.14,371.71,607.08,384.42,607.08,397.87z M171.34,592.77c0-11.37,0.95-21.42,2.84-28.63c2.46-10.43,12.7-15.92,21.61-15.92
	c7.58,0,14.03,3.79,14.03,12.13v1.33c-0.57,6.26-0.76,13.08-0.76,20.09c0,37.15,7.2,80,21.42,80h0.19
	c29.95-0.57,30.33-92.13,31.66-99.9c0.95-6.45,6.82-10.05,11.94-10.05c4.74,0,9.1,2.84,9.48,9.1c0.19,2.46,0.19,5.5,0.19,9.1
	c0,28.06-4.74,87.58-36.4,105.4c-1.9,1.71-2.65,5.12-2.65,9.48c0,12.13,5.12,32.23,5.12,49.29c0,7.01-0.95,13.46-3.41,18.77
	c-3.03,6.45-11.18,9.86-18.96,9.86c-7.77,0-15.17-3.41-16.68-10.43c-1.14-6.07-1.71-12.32-1.71-18.39c0-18.39,4.17-35.45,4.17-45.12
	c0-4.55-0.95-7.39-3.79-7.77C181.77,677.13,171.34,628.79,171.34,592.77z M344.61,571.54c15.35,0,29.76,3.98,32.98,9.67
	c0.38,0.95,0.57,1.71,0.57,2.46c0,2.08-1.52,3.6-4.55,3.6c-4.93-0.57-9.86-0.76-14.79-0.76c-8.72,0-17.06,0.76-22.94,2.65
	c-2.46,0.57-4.17,4.74-4.17,7.58c-1.33,8.53-2.84,38.29-2.84,59.33c0,9.67,0.38,17.44,1.14,20.47c0.38,1.71,2.65,2.09,5.88,2.09
	c4.17,0,9.67-0.76,14.22-0.76c4.74,0,8.34,0.76,8.53,3.98c0,8.53-25.21,4.55-28.06,8.34c-0.95,1.71-1.33,5.69-1.33,10.62
	c0,9.1,1.33,21.04,1.9,25.78c1.14,6.07,5.12,7.96,9.86,7.96c7.96,0,18.39-5.12,23.13-5.12c1.14,0,2.09,0.38,2.28,1.33v0.57
	c0,6.26-22.18,12.89-36.97,13.27h-1.9c-8.34,0-13.65-2.28-16.87-5.12c-11.18-9.86-15.17-48.34-15.17-83.98
	c0-27.68,2.46-53.84,5.69-63.69C306.13,577.23,326.23,571.54,344.61,571.54z M403.96,743.29c-7.2,0-14.41-3.98-16.3-13.27
	c-2.28-11.56-3.41-24.08-3.41-36.97c0-48.91,15.73-102.18,35.64-120.57c5.5-4.93,12.51-7.58,19.34-7.58
	c6.45,0,12.89,2.09,18.01,6.83c19.71,17.63,25.4,65.4,25.4,106.73c0,19.52-1.33,37.72-3.03,50.42c-0.38,6.64-7.01,11-12.89,11
	c-3.98,0-7.77-2.28-8.34-7.58c0.19-10.62,0.95-18.77,0.95-29c0-2.84,0-5.88-0.19-9.1V694c0-3.41-9.67-6.45-19.72-6.45
	c-5.88,0-11.94,0.95-16.3,3.6c-1.33,0.95-2.28,3.22-2.28,4.93c0,1.33-0.57,13.08-0.57,23.7c0,4.36,0.19,8.72,0.38,11.75
	C418.93,738.93,411.35,743.29,403.96,743.29z M422.34,668.98v3.79c0,2.28,0.95,2.28,2.84,2.28c3.6-0.19,14.6-0.57,23.13-0.57
	c4.93,0,8.91,0.19,10.62,0.38c0.19,0,0.57,0.19,0.76,0.19c0.76,0,1.33-0.76,1.33-1.9c0.19-3.41,0.19-7.39,0.19-11.75
	c0-23.13-1.89-54.78-8.53-66.16c-2.08-2.84-5.69-4.74-9.48-4.74c-3.41,0-6.82,1.71-8.72,5.69
	C425.19,614.38,422.34,650.4,422.34,668.98z M579.5,546.14c1.33,0,2.65,0,4.17,0.19c32.42,3.98,49.48,28.63,49.48,70.14
	c0,4.36-0.19,8.91-0.57,13.65c-2.65,36.21-17.63,58.2-40,68.81c0.76,1.71,22.75,12.89,30.71,37.34c0.95,2.84,1.52,5.31,1.52,7.58
	c0,6.07-3.79,10.05-11.94,13.46c-1.89,0.76-3.98,1.33-6.07,1.33c-6.26,0-12.13-3.79-15.17-10.05c-18.2-36.97-37.91-40-45.69-42.08
	c-0.38,3.03-2.65,62.75-3.03,65.78c-1.33,8.34-7.2,11.56-14.03,11.56c-9.1,0-19.53-5.88-21.99-13.65
	c-4.55-14.41-6.82-64.64-6.82-113.74c0-40.76,1.52-80.57,4.55-98.77c2.46-15.35,14.22-21.99,25.97-21.99
	c12.32,0,24.83,7.2,26.73,19.52C562.82,548.98,570.97,546.14,579.5,546.14z M556.95,576.09c-2.09,7.96-3.79,44.93-8.34,108.81v0.95
	c0,1.71,0.76,2.65,2.46,3.22c4.36,1.52,8.34,2.28,12.13,2.28c23.89,0,35.45-30.14,38.29-58.39c0.57-4.74,0.76-9.67,0.76-14.6
	c0-27.11-7.58-54.22-25.59-54.22c-1.89,0-3.98,0.19-6.26,0.95C565.29,566.8,558.65,569.83,556.95,576.09z M187.35,152.97l3.87-9.75
	L201,147c0.17,0.07,0.35,0.07,0.51,0.01c0.25-0.09,0.44-0.31,0.49-0.58c0.05-0.26-0.05-0.52-0.26-0.7l-8.07-6.69l6.61-8.14
	c0.21-0.26,0.23-0.62,0.03-0.89c-0.19-0.28-0.53-0.39-0.85-0.28c-0.06,0.02-0.11,0.05-0.16,0.08l-8.86,5.61l-5.7-8.81
	c-0.19-0.29-0.54-0.41-0.87-0.3c-0.37,0.13-0.57,0.51-0.48,0.89l2.6,10.16l-10.13,2.7l-0.06,0.02c-0.34,0.12-0.54,0.45-0.49,0.8
	c0.05,0.35,0.33,0.62,0.69,0.64l10.47,0.67l-0.57,10.47c-0.01,0.25,0.09,0.48,0.29,0.63c0.2,0.15,0.47,0.19,0.7,0.11
	C187.11,153.33,187.27,153.17,187.35,152.97z M185.16,196.09l3.87-9.75l9.78,3.78c0.17,0.07,0.35,0.07,0.51,0.01
	c0.25-0.09,0.44-0.31,0.49-0.58c0.05-0.26-0.05-0.52-0.26-0.7l-8.07-6.69l6.61-8.14c0.21-0.26,0.23-0.62,0.03-0.89
	c-0.19-0.28-0.53-0.39-0.85-0.28c-0.06,0.02-0.11,0.05-0.16,0.08l-8.86,5.61l-5.7-8.81c-0.19-0.29-0.54-0.41-0.87-0.3
	c-0.37,0.13-0.57,0.51-0.48,0.89l2.6,10.16l-10.13,2.7l-0.06,0.02c-0.34,0.12-0.54,0.45-0.49,0.8c0.05,0.35,0.33,0.62,0.69,0.64
	l10.47,0.67l-0.57,10.47c-0.01,0.25,0.09,0.48,0.29,0.63c0.2,0.15,0.47,0.19,0.7,0.11C184.92,196.45,185.08,196.3,185.16,196.09z
	 M183.19,242.25l3.87-9.75l9.78,3.78c0.17,0.07,0.35,0.07,0.51,0.01c0.25-0.09,0.44-0.31,0.49-0.58c0.05-0.26-0.05-0.52-0.26-0.7
	l-8.07-6.69l6.61-8.14c0.21-0.26,0.23-0.62,0.03-0.89c-0.19-0.28-0.53-0.39-0.85-0.28c-0.06,0.02-0.11,0.05-0.16,0.08l-8.86,5.61
	l-5.7-8.81c-0.19-0.29-0.54-0.41-0.87-0.3c-0.37,0.13-0.57,0.51-0.48,0.89l2.6,10.16l-10.13,2.7l-0.06,0.02
	c-0.34,0.12-0.54,0.45-0.49,0.8c0.05,0.35,0.33,0.62,0.69,0.64l10.47,0.67l-0.57,10.47c-0.01,0.25,0.09,0.48,0.29,0.63
	c0.2,0.15,0.47,0.19,0.7,0.11C182.95,242.61,183.11,242.46,183.19,242.25z M356.47,158.47l3.87-9.75l9.78,3.78
	c0.17,0.07,0.35,0.07,0.51,0.01c0.25-0.09,0.44-0.31,0.49-0.58c0.05-0.26-0.05-0.52-0.26-0.7l-8.07-6.69l6.61-8.14
	c0.21-0.26,0.23-0.62,0.03-0.89c-0.19-0.28-0.53-0.39-0.85-0.28c-0.06,0.02-0.11,0.05-0.16,0.08l-8.86,5.61l-5.7-8.81
	c-0.19-0.29-0.54-0.41-0.87-0.3c-0.37,0.13-0.57,0.51-0.48,0.89l2.6,10.16l-10.13,2.7l-0.06,0.02c-0.34,0.12-0.54,0.45-0.49,0.8
	c0.05,0.35,0.33,0.62,0.69,0.64l10.47,0.67l-0.57,10.47c-0.01,0.25,0.09,0.48,0.29,0.63c0.2,0.15,0.47,0.19,0.7,0.11
	C356.24,158.83,356.39,158.68,356.47,158.47z M354.28,201.6l3.87-9.75l9.78,3.78c0.17,0.07,0.35,0.07,0.51,0.01
	c0.25-0.09,0.44-0.31,0.49-0.58c0.05-0.26-0.05-0.52-0.26-0.7l-8.07-6.69l6.61-8.14c0.21-0.26,0.23-0.62,0.03-0.89
	c-0.19-0.28-0.53-0.39-0.85-0.28c-0.06,0.02-0.11,0.05-0.16,0.08l-8.86,5.61l-5.7-8.81c-0.19-0.29-0.54-0.41-0.87-0.3
	c-0.37,0.13-0.57,0.51-0.48,0.89l2.6,10.16l-10.13,2.7l-0.06,0.02c-0.34,0.12-0.54,0.45-0.49,0.8c0.05,0.35,0.33,0.62,0.69,0.64
	l10.47,0.67l-0.57,10.47c-0.01,0.25,0.09,0.48,0.29,0.63c0.2,0.15,0.47,0.19,0.7,0.11C354.05,201.95,354.2,201.8,354.28,201.6z
	 M352.31,247.76l3.87-9.75l9.78,3.78c0.17,0.07,0.35,0.07,0.51,0.01c0.25-0.09,0.44-0.31,0.49-0.58c0.05-0.26-0.05-0.52-0.26-0.7
	l-8.07-6.69l6.61-8.14c0.21-0.26,0.23-0.62,0.03-0.89c-0.19-0.28-0.53-0.39-0.85-0.28c-0.06,0.02-0.11,0.05-0.16,0.08l-8.86,5.61
	l-5.7-8.81c-0.19-0.29-0.54-0.41-0.87-0.3c-0.37,0.13-0.57,0.51-0.48,0.89l2.6,10.16l-10.13,2.7l-0.06,0.02
	c-0.34,0.12-0.54,0.45-0.49,0.8c0.05,0.35,0.33,0.62,0.69,0.64l10.47,0.67l-0.57,10.47c-0.01,0.25,0.09,0.48,0.29,0.63
	c0.2,0.15,0.47,0.19,0.7,0.11C352.07,248.11,352.23,247.96,352.31,247.76z M481.15,152.97l3.87-9.75l9.78,3.78
	c0.17,0.07,0.35,0.07,0.51,0.01c0.25-0.09,0.44-0.31,0.49-0.58c0.05-0.26-0.05-0.52-0.26-0.7l-8.07-6.69l6.61-8.14
	c0.21-0.26,0.23-0.62,0.03-0.89c-0.19-0.28-0.53-0.39-0.85-0.28c-0.05,0.02-0.11,0.05-0.16,0.08l-8.86,5.61l-5.7-8.81
	c-0.19-0.29-0.54-0.41-0.87-0.3c-0.37,0.13-0.57,0.51-0.48,0.89l2.6,10.16l-10.13,2.7l-0.06,0.02c-0.34,0.12-0.54,0.45-0.49,0.8
	c0.05,0.35,0.33,0.62,0.69,0.64l10.47,0.67l-0.57,10.47c-0.01,0.25,0.09,0.48,0.29,0.63c0.2,0.15,0.47,0.19,0.7,0.11
	C480.91,153.33,481.07,153.17,481.15,152.97z M478.96,196.09l3.87-9.75l9.78,3.78c0.17,0.07,0.35,0.07,0.51,0.01
	c0.25-0.09,0.44-0.31,0.49-0.58c0.05-0.26-0.05-0.52-0.26-0.7l-8.07-6.69l6.61-8.14c0.21-0.26,0.23-0.62,0.03-0.89
	c-0.19-0.28-0.53-0.39-0.85-0.28c-0.05,0.02-0.11,0.05-0.16,0.08l-8.86,5.61l-5.7-8.81c-0.19-0.29-0.54-0.41-0.87-0.3
	c-0.37,0.13-0.57,0.51-0.48,0.89l2.6,10.16l-10.13,2.7l-0.06,0.02c-0.34,0.12-0.54,0.45-0.49,0.8c0.05,0.35,0.33,0.62,0.69,0.64
	l10.47,0.67l-0.57,10.47c-0.01,0.25,0.09,0.48,0.29,0.63c0.2,0.15,0.47,0.19,0.7,0.11C478.72,196.45,478.88,196.3,478.96,196.09z
	 M476.99,242.25l3.87-9.75l9.78,3.78c0.17,0.07,0.35,0.07,0.51,0.01c0.25-0.09,0.44-0.31,0.49-0.58c0.05-0.26-0.05-0.52-0.26-0.7
	l-8.07-6.69l6.61-8.14c0.21-0.26,0.23-0.62,0.03-0.89c-0.19-0.28-0.53-0.39-0.85-0.28c-0.06,0.02-0.11,0.05-0.16,0.08l-8.86,5.61
	l-5.7-8.81c-0.19-0.29-0.54-0.41-0.87-0.3c-0.37,0.13-0.57,0.51-0.48,0.89l2.6,10.16l-10.13,2.7l-0.06,0.02
	c-0.34,0.12-0.54,0.45-0.49,0.8c0.05,0.35,0.33,0.62,0.69,0.64l10.47,0.67l-0.57,10.47c-0.01,0.25,0.09,0.48,0.29,0.63
	c0.2,0.15,0.47,0.19,0.7,0.11C476.75,242.61,476.9,242.46,476.99,242.25z M221.78,398.76l3.87-9.75l9.78,3.78
	c0.17,0.07,0.35,0.07,0.51,0.01c0.25-0.09,0.44-0.31,0.49-0.58c0.05-0.26-0.05-0.52-0.26-0.7l-8.07-6.69l6.61-8.14
	c0.21-0.26,0.23-0.62,0.03-0.89c-0.19-0.28-0.53-0.39-0.85-0.28c-0.06,0.02-0.11,0.05-0.16,0.08l-8.86,5.61l-5.7-8.81
	c-0.19-0.29-0.54-0.41-0.87-0.3c-0.37,0.13-0.57,0.51-0.48,0.89l2.6,10.16l-10.13,2.7l-0.06,0.02c-0.34,0.12-0.54,0.45-0.49,0.8
	c0.05,0.35,0.33,0.62,0.69,0.64l10.47,0.67l-0.57,10.47c-0.01,0.25,0.09,0.48,0.29,0.63c0.2,0.15,0.47,0.19,0.7,0.11
	C221.54,399.12,221.7,398.97,221.78,398.76z M219.59,441.89l3.87-9.75l9.78,3.78c0.17,0.07,0.35,0.07,0.51,0.01
	c0.25-0.09,0.44-0.31,0.49-0.58c0.05-0.26-0.05-0.52-0.26-0.7l-8.07-6.69l6.61-8.14c0.21-0.26,0.23-0.62,0.03-0.89
	c-0.19-0.28-0.53-0.39-0.85-0.28c-0.06,0.02-0.11,0.05-0.16,0.08l-8.86,5.61l-5.7-8.81c-0.19-0.29-0.54-0.41-0.87-0.3
	c-0.37,0.13-0.57,0.51-0.48,0.89l2.6,10.16l-10.13,2.7l-0.06,0.02c-0.34,0.12-0.54,0.45-0.49,0.8c0.05,0.35,0.33,0.62,0.69,0.64
	l10.47,0.67l-0.57,10.47c-0.01,0.25,0.09,0.48,0.29,0.63c0.2,0.15,0.47,0.19,0.7,0.11C219.35,442.24,219.51,442.09,219.59,441.89z
	 M220.31,488.05l3.87-9.75l9.78,3.78c0.17,0.07,0.35,0.07,0.51,0.01c0.25-0.09,0.44-0.31,0.49-0.58c0.05-0.26-0.05-0.52-0.26-0.7
	l-8.07-6.69l6.61-8.14c0.21-0.26,0.23-0.62,0.03-0.89c-0.19-0.28-0.53-0.39-0.85-0.28c-0.06,0.02-0.11,0.05-0.16,0.08l-8.86,5.61
	l-5.7-8.81c-0.19-0.29-0.54-0.41-0.87-0.3c-0.37,0.13-0.57,0.51-0.48,0.89l2.6,10.16l-10.13,2.7l-0.06,0.02
	c-0.34,0.12-0.54,0.45-0.49,0.8c0.05,0.35,0.33,0.62,0.69,0.64l10.47,0.67l-0.57,10.47c-0.01,0.25,0.09,0.48,0.29,0.63
	c0.2,0.15,0.47,0.19,0.7,0.11C220.07,488.4,220.22,488.25,220.31,488.05z M519.8,669.88l3.87-9.75l9.78,3.78
	c0.17,0.07,0.35,0.07,0.51,0.01c0.25-0.09,0.44-0.31,0.49-0.58c0.05-0.26-0.05-0.52-0.26-0.7l-8.07-6.69l6.61-8.14
	c0.21-0.26,0.23-0.62,0.03-0.89c-0.19-0.28-0.53-0.39-0.85-0.28c-0.05,0.02-0.11,0.05-0.16,0.08l-8.86,5.61l-5.7-8.81
	c-0.19-0.29-0.54-0.41-0.87-0.3c-0.37,0.13-0.57,0.51-0.48,0.89l2.6,10.16l-10.13,2.7l-0.06,0.02c-0.34,0.12-0.54,0.45-0.49,0.8
	c0.05,0.35,0.33,0.62,0.69,0.64l10.47,0.67l-0.57,10.47c-0.01,0.25,0.09,0.48,0.29,0.63c0.2,0.15,0.47,0.19,0.7,0.11
	C519.56,670.24,519.72,670.09,519.8,669.88z M517.61,713.01l3.87-9.75l9.78,3.78c0.17,0.07,0.35,0.07,0.51,0.01
	c0.25-0.09,0.44-0.31,0.49-0.58c0.05-0.26-0.05-0.52-0.26-0.7l-8.07-6.69l6.61-8.14c0.21-0.26,0.23-0.62,0.03-0.89
	c-0.19-0.28-0.53-0.39-0.85-0.28c-0.05,0.02-0.11,0.05-0.16,0.08l-8.86,5.61l-5.7-8.81c-0.19-0.29-0.54-0.41-0.87-0.3
	c-0.37,0.13-0.57,0.51-0.48,0.89l2.6,10.16l-10.13,2.7l-0.06,0.02c-0.34,0.12-0.54,0.45-0.49,0.8c0.05,0.35,0.33,0.62,0.69,0.64
	l10.47,0.67l-0.57,10.47c-0.01,0.25,0.09,0.48,0.29,0.63c0.2,0.15,0.47,0.19,0.7,0.11C517.37,713.36,517.53,713.21,517.61,713.01z
	 M518.33,759.17l3.87-9.75l9.78,3.78c0.17,0.07,0.35,0.07,0.51,0.01c0.25-0.09,0.44-0.31,0.49-0.58c0.05-0.26-0.05-0.52-0.26-0.7
	l-8.07-6.69l6.61-8.14c0.21-0.26,0.23-0.62,0.03-0.89c-0.19-0.28-0.53-0.39-0.85-0.28c-0.05,0.02-0.11,0.05-0.16,0.08l-8.86,5.61
	l-5.7-8.81c-0.19-0.29-0.54-0.41-0.87-0.3c-0.37,0.13-0.57,0.51-0.48,0.89l2.6,10.16l-10.13,2.7l-0.06,0.02
	c-0.34,0.12-0.54,0.45-0.49,0.8c0.05,0.35,0.33,0.62,0.69,0.64l10.47,0.67l-0.57,10.47c-0.01,0.25,0.09,0.48,0.29,0.63
	c0.2,0.15,0.47,0.19,0.7,0.11C518.09,759.53,518.25,759.37,518.33,759.17z M313.12,633.7l3.66-9.22l9.25,3.57
	c0.16,0.06,0.33,0.07,0.48,0.01c0.24-0.08,0.42-0.29,0.46-0.55c0.04-0.25-0.05-0.5-0.24-0.66l-7.64-6.33l6.25-7.69
	c0.2-0.25,0.21-0.59,0.03-0.84c-0.18-0.26-0.51-0.37-0.8-0.26c-0.05,0.02-0.1,0.04-0.15,0.07l-8.38,5.31l-5.39-8.33
	c-0.18-0.28-0.51-0.39-0.82-0.28c-0.35,0.12-0.54,0.48-0.45,0.84l2.46,9.61l-9.58,2.55l-0.05,0.02c-0.32,0.11-0.51,0.42-0.46,0.76
	c0.05,0.33,0.31,0.58,0.65,0.61l9.9,0.63l-0.54,9.9c-0.01,0.24,0.09,0.46,0.27,0.6c0.19,0.14,0.44,0.18,0.66,0.1
	C312.89,634.04,313.04,633.9,313.12,633.7z M311.05,674.48l3.66-9.22l9.25,3.57c0.16,0.06,0.33,0.07,0.48,0.01
	c0.24-0.08,0.42-0.29,0.46-0.55c0.04-0.25-0.05-0.5-0.24-0.66l-7.64-6.33l6.25-7.69c0.2-0.25,0.21-0.59,0.03-0.84
	c-0.18-0.26-0.51-0.37-0.8-0.26c-0.05,0.02-0.1,0.04-0.15,0.07l-8.38,5.31l-5.39-8.33c-0.18-0.28-0.51-0.39-0.82-0.28
	c-0.35,0.12-0.54,0.48-0.45,0.84l2.46,9.61l-9.58,2.55l-0.05,0.02c-0.32,0.11-0.51,0.42-0.46,0.76c0.05,0.33,0.31,0.58,0.65,0.61
	l9.9,0.63l-0.54,9.9c-0.01,0.24,0.09,0.46,0.27,0.6c0.19,0.14,0.44,0.18,0.66,0.1C310.82,674.82,310.97,674.67,311.05,674.48z
	 M311.97,715.93l3.06-7.72l7.75,2.99c0.13,0.05,0.27,0.05,0.4,0.01c0.2-0.07,0.35-0.25,0.39-0.46c0.04-0.21-0.04-0.42-0.21-0.55
	l-6.4-5.3l5.24-6.45c0.17-0.21,0.18-0.49,0.03-0.71c-0.15-0.22-0.42-0.31-0.67-0.22c-0.04,0.02-0.09,0.04-0.13,0.06l-7.02,4.45
	l-4.51-6.98c-0.15-0.23-0.43-0.33-0.69-0.24c-0.29,0.1-0.45,0.4-0.38,0.7l2.06,8.05l-8.03,2.14l-0.04,0.01
	c-0.27,0.09-0.43,0.35-0.39,0.63c0.04,0.28,0.26,0.49,0.55,0.51l8.29,0.53l-0.45,8.3c-0.01,0.2,0.07,0.38,0.23,0.5
	c0.16,0.12,0.37,0.15,0.55,0.09C311.78,716.21,311.9,716.09,311.97,715.93z M471.77,390.64l3.87-9.75l9.78,3.78
	c0.17,0.07,0.35,0.07,0.51,0.01c0.25-0.09,0.44-0.31,0.49-0.58c0.05-0.26-0.05-0.52-0.26-0.7l-8.07-6.69l6.61-8.14
	c0.21-0.26,0.23-0.62,0.03-0.89c-0.19-0.28-0.53-0.39-0.85-0.28c-0.05,0.02-0.11,0.05-0.16,0.08l-8.86,5.61l-5.7-8.81
	c-0.19-0.29-0.54-0.41-0.87-0.3c-0.37,0.13-0.57,0.51-0.48,0.89l2.6,10.16l-10.13,2.7l-0.06,0.02c-0.34,0.12-0.54,0.45-0.49,0.8
	c0.05,0.35,0.33,0.62,0.69,0.64l10.47,0.67l-0.57,10.47c-0.01,0.25,0.09,0.48,0.29,0.63c0.2,0.15,0.47,0.19,0.7,0.11
	C471.53,391,471.69,390.85,471.77,390.64z M469.58,433.76l3.87-9.75l9.78,3.78c0.17,0.07,0.35,0.07,0.51,0.01
	c0.25-0.09,0.44-0.31,0.49-0.58c0.05-0.26-0.05-0.52-0.26-0.7l-8.07-6.69l6.61-8.14c0.21-0.26,0.23-0.62,0.03-0.89
	c-0.19-0.28-0.53-0.39-0.85-0.28c-0.05,0.02-0.11,0.05-0.16,0.08l-8.86,5.61l-5.7-8.81c-0.19-0.29-0.54-0.41-0.87-0.3
	c-0.37,0.13-0.57,0.51-0.48,0.89l2.6,10.16l-10.13,2.7l-0.06,0.02c-0.34,0.12-0.54,0.45-0.49,0.8c0.05,0.35,0.33,0.62,0.69,0.64
	l10.47,0.67l-0.57,10.47c-0.01,0.25,0.09,0.48,0.29,0.63c0.2,0.15,0.47,0.19,0.7,0.11C469.34,434.12,469.5,433.97,469.58,433.76z
	 M471.64,479.93l3.87-9.75l9.78,3.78c0.17,0.07,0.35,0.07,0.51,0.01c0.25-0.09,0.44-0.31,0.49-0.58c0.05-0.26-0.05-0.52-0.26-0.7
	l-8.07-6.69l6.61-8.14c0.21-0.26,0.23-0.62,0.03-0.89c-0.19-0.28-0.53-0.39-0.85-0.28c-0.06,0.02-0.11,0.05-0.16,0.08l-8.86,5.61
	l-5.7-8.81c-0.19-0.29-0.54-0.41-0.87-0.3c-0.37,0.13-0.57,0.51-0.48,0.89l2.6,10.16l-10.13,2.7l-0.06,0.02
	c-0.34,0.12-0.54,0.45-0.49,0.8c0.05,0.35,0.33,0.62,0.69,0.64l10.47,0.67l-0.57,10.47c-0.01,0.25,0.09,0.48,0.29,0.63
	c0.2,0.15,0.47,0.19,0.7,0.11C471.4,480.28,471.56,480.13,471.64,479.93z"/>
</svg>
